<svg xmlns="http://www.w3.org/2000/svg" viewBox="0 0 512 512" width="512" height="512">
  <!-- Background -->
  <rect width="512" height="512" fill="#2c5f8d" rx="80"/>
  
  <!-- Calculator Display -->
  <rect x="60" y="60" width="392" height="140" fill="#0a0a0a" rx="10" stroke="#444" stroke-width="4"/>
  
  <!-- Display Text -->
  <text x="256" y="115" font-family="Courier New, monospace" font-size="48" font-weight="bold" fill="#00ff00" text-anchor="middle">
    4011
  </text>
  <text x="256" y="165" font-family="Courier New, monospace" font-size="24" fill="#ffffff" text-anchor="middle">
    PLU LOOKUP
  </text>
  
  <!-- Calculator Buttons Grid -->
  <!-- Row 1 -->
  <rect x="70" y="230" width="80" height="60" fill="#3a3a3a" rx="8" stroke="#555" stroke-width="2"/>
  <text x="110" y="268" font-family="Arial, sans-serif" font-size="28" fill="#ffffff" text-anchor="middle">1</text>
  
  <rect x="170" y="230" width="80" height="60" fill="#3a3a3a" rx="8" stroke="#555" stroke-width="2"/>
  <text x="210" y="268" font-family="Arial, sans-serif" font-size="28" fill="#ffffff" text-anchor="middle">2</text>
  
  <rect x="270" y="230" width="80" height="60" fill="#3a3a3a" rx="8" stroke="#555" stroke-width="2"/>
  <text x="310" y="268" font-family="Arial, sans-serif" font-size="28" fill="#ffffff" text-anchor="middle">3</text>
  
  <rect x="370" y="230" width="72" height="60" fill="#2c8d5f" rx="8" stroke="#555" stroke-width="2"/>
  <text x="406" y="268" font-family="Arial, sans-serif" font-size="20" fill="#ffffff" text-anchor="middle">🔍</text>
  
  <!-- Row 2 -->
  <rect x="70" y="310" width="80" height="60" fill="#3a3a3a" rx="8" stroke="#555" stroke-width="2"/>
  <text x="110" y="348" font-family="Arial, sans-serif" font-size="28" fill="#ffffff" text-anchor="middle">4</text>
  
  <rect x="170" y="310" width="80" height="60" fill="#3a3a3a" rx="8" stroke="#555" stroke-width="2"/>
  <text x="210" y="348" font-family="Arial, sans-serif" font-size="28" fill="#ffffff" text-anchor="middle">5</text>
  
  <rect x="270" y="310" width="80" height="60" fill="#3a3a3a" rx="8" stroke="#555" stroke-width="2"/>
  <text x="310" y="348" font-family="Arial, sans-serif" font-size="28" fill="#ffffff" text-anchor="middle">6</text>
  
  <rect x="370" y="310" width="72" height="60" fill="#2c5f8d" rx="8" stroke="#555" stroke-width="2"/>
  <text x="406" y="348" font-family="Arial, sans-serif" font-size="20" fill="#ffffff" text-anchor="middle">🎤</text>
  
  <!-- Row 3 -->
  <rect x="70" y="390" width="80" height="60" fill="#3a3a3a" rx="8" stroke="#555" stroke-width="2"/>
  <text x="110" y="428" font-family="Arial, sans-serif" font-size="28" fill="#ffffff" text-anchor="middle">7</text>
  
  <rect x="170" y="390" width="80" height="60" fill="#3a3a3a" rx="8" stroke="#555" stroke-width="2"/>
  <text x="210" y="428" font-family="Arial, sans-serif" font-size="28" fill="#ffffff" text-anchor="middle">8</text>
  
  <rect x="270" y="390" width="80" height="60" fill="#3a3a3a" rx="8" stroke="#555" stroke-width="2"/>
  <text x="310" y="428" font-family="Arial, sans-serif" font-size="28" fill="#ffffff" text-anchor="middle">9</text>
  
  <rect x="370" y="390" width="72" height="60" fill="#2c8d5f" rx="8" stroke="#555" stroke-width="2"/>
  <text x="406" y="428" font-family="Arial, sans-serif" font-size="20" fill="#ffffff" text-anchor="middle">🔊</text>
  
  <!-- Row 4 -->
  <rect x="70" y="470" width="180" height="32" fill="#555555" rx="8" stroke="#555" stroke-width="2"/>
  <text x="160" y="493" font-family="Arial, sans-serif" font-size="16" fill="#ffffff" text-anchor="middle">0</text>
  
  <rect x="270" y="470" width="172" height="32" fill="#8d2c2c" rx="8" stroke="#555" stroke-width="2"/>
  <text x="356" y="493" font-family="Arial, sans-serif" font-size="14" fill="#ffffff" text-anchor="middle">CLR</text>
</svg>
